<svg xmlns="http://www.w3.org/2000/svg" width="820" height="300" viewBox="0 0 820 300" role="img" aria-labelledby="title desc">
  <title id="title">График просмотров README</title>
  <desc id="desc">Просмотры GitHub README за последние 30 дней по данным hits.sh.</desc>
  <rect width="820" height="300" rx="16" fill="#f7fbff"/>
  <rect x="1" y="1" width="818" height="298" rx="15" fill="none" stroke="#d7e6f3"/>
  <text x="48" y="44" font-family="Arial, sans-serif" font-size="24" font-weight="700" fill="#102033">Просмотры README</text>
  <text x="48" y="68" font-family="Arial, sans-serif" font-size="13" fill="#5d7184">Последние 30 дней · всего 5 · месяц 5 · неделя 5</text>
  <line x1="48" y1="82" x2="772" y2="82" stroke="#e4eef7"/>
  <line x1="48" y1="156" x2="772" y2="156" stroke="#e4eef7"/>
  <line x1="48" y1="230" x2="772" y2="230" stroke="#ccddea"/>
  <text x="30" y="86" font-family="Arial, sans-serif" font-size="11" fill="#7b8fa1" text-anchor="end">5</text>
  <text x="30" y="234" font-family="Arial, sans-serif" font-size="11" fill="#7b8fa1" text-anchor="end">0</text>
  <g>
    <rect x="48.0" y="228.0" width="19.3" height="2.0" rx="3" fill="#d9e6f2"><title>2026-03-30: 0</title></rect>
    <rect x="72.3" y="228.0" width="19.3" height="2.0" rx="3" fill="#d9e6f2"><title>2026-03-31: 0</title></rect>
    <rect x="96.6" y="228.0" width="19.3" height="2.0" rx="3" fill="#d9e6f2"><title>2026-04-01: 0</title></rect>
    <rect x="120.9" y="228.0" width="19.3" height="2.0" rx="3" fill="#d9e6f2"><title>2026-04-02: 0</title></rect>
    <rect x="145.2" y="228.0" width="19.3" height="2.0" rx="3" fill="#d9e6f2"><title>2026-04-03: 0</title></rect>
    <rect x="169.5" y="228.0" width="19.3" height="2.0" rx="3" fill="#d9e6f2"><title>2026-04-04: 0</title></rect>
    <rect x="193.8" y="228.0" width="19.3" height="2.0" rx="3" fill="#d9e6f2"><title>2026-04-05: 0</title></rect>
    <rect x="218.1" y="228.0" width="19.3" height="2.0" rx="3" fill="#d9e6f2"><title>2026-04-06: 0</title></rect>
    <rect x="242.4" y="228.0" width="19.3" height="2.0" rx="3" fill="#d9e6f2"><title>2026-04-07: 0</title></rect>
    <rect x="266.7" y="228.0" width="19.3" height="2.0" rx="3" fill="#d9e6f2"><title>2026-04-08: 0</title></rect>
    <rect x="291.0" y="228.0" width="19.3" height="2.0" rx="3" fill="#d9e6f2"><title>2026-04-09: 0</title></rect>
    <rect x="315.3" y="228.0" width="19.3" height="2.0" rx="3" fill="#d9e6f2"><title>2026-04-10: 0</title></rect>
    <rect x="339.6" y="228.0" width="19.3" height="2.0" rx="3" fill="#d9e6f2"><title>2026-04-11: 0</title></rect>
    <rect x="363.9" y="228.0" width="19.3" height="2.0" rx="3" fill="#d9e6f2"><title>2026-04-12: 0</title></rect>
    <rect x="388.2" y="228.0" width="19.3" height="2.0" rx="3" fill="#d9e6f2"><title>2026-04-13: 0</title></rect>
    <rect x="412.5" y="228.0" width="19.3" height="2.0" rx="3" fill="#d9e6f2"><title>2026-04-14: 0</title></rect>
    <rect x="436.8" y="228.0" width="19.3" height="2.0" rx="3" fill="#d9e6f2"><title>2026-04-15: 0</title></rect>
    <rect x="461.1" y="228.0" width="19.3" height="2.0" rx="3" fill="#d9e6f2"><title>2026-04-16: 0</title></rect>
    <rect x="485.4" y="228.0" width="19.3" height="2.0" rx="3" fill="#d9e6f2"><title>2026-04-17: 0</title></rect>
    <rect x="509.7" y="228.0" width="19.3" height="2.0" rx="3" fill="#d9e6f2"><title>2026-04-18: 0</title></rect>
    <rect x="534.0" y="228.0" width="19.3" height="2.0" rx="3" fill="#d9e6f2"><title>2026-04-19: 0</title></rect>
    <rect x="558.3" y="228.0" width="19.3" height="2.0" rx="3" fill="#d9e6f2"><title>2026-04-20: 0</title></rect>
    <rect x="582.6" y="228.0" width="19.3" height="2.0" rx="3" fill="#d9e6f2"><title>2026-04-21: 0</title></rect>
    <rect x="606.9" y="228.0" width="19.3" height="2.0" rx="3" fill="#d9e6f2"><title>2026-04-22: 0</title></rect>
    <rect x="631.2" y="228.0" width="19.3" height="2.0" rx="3" fill="#d9e6f2"><title>2026-04-23: 0</title></rect>
    <rect x="655.5" y="228.0" width="19.3" height="2.0" rx="3" fill="#d9e6f2"><title>2026-04-24: 0</title></rect>
    <rect x="679.8" y="228.0" width="19.3" height="2.0" rx="3" fill="#d9e6f2"><title>2026-04-25: 0</title></rect>
    <rect x="704.1" y="228.0" width="19.3" height="2.0" rx="3" fill="#d9e6f2"><title>2026-04-26: 0</title></rect>
    <rect x="728.4" y="228.0" width="19.3" height="2.0" rx="3" fill="#d9e6f2"><title>2026-04-27: 0</title></rect>
    <rect x="752.7" y="82.0" width="19.3" height="148.0" rx="3" fill="#0088cc"><title>2026-04-28: 5</title></rect>
  </g>
  <text x="48" y="258" font-family="Arial, sans-serif" font-size="12" fill="#5d7184">30 мар.</text>
  <text x="772" y="258" font-family="Arial, sans-serif" font-size="12" fill="#5d7184" text-anchor="end">28 апр.</text>
  <text x="48" y="282" font-family="Arial, sans-serif" font-size="11" fill="#8aa0b4">Обновлено: 2026-04-27 15:14 UTC · источник: hits.sh</text>
</svg>
